<svg xmlns="http://www.w3.org/2000/svg" viewBox="0 0 800 800" width="800" height="800" role="img" aria-label="Car Accessories placeholder">
  <defs>
    <linearGradient id="bg" x1="0" y1="0" x2="1" y2="1">
      <stop offset="0" stop-color="#f6f7f9"/>
      <stop offset="1" stop-color="#e7e9ed"/>
    </linearGradient>
  </defs>
  <rect width="800" height="800" fill="url(#bg)"/>
  <g fill="none" stroke="#8f97a3" stroke-width="10" stroke-linecap="round" stroke-linejoin="round">
    <path d="M300 400 l22 -52 a24 24 0 0 1 22 -15 h112 a24 24 0 0 1 22 15 l22 52"/>
    <path d="M290 400 h220 a16 16 0 0 1 16 16 v34 h-252 v-34 a16 16 0 0 1 16 -16 Z"/>
    <circle cx="330" cy="466" r="18"/>
    <circle cx="470" cy="466" r="18"/>
    <line x1="322" y1="410" x2="342" y2="410"/>
    <line x1="458" y1="410" x2="478" y2="410"/>
  </g>
  <text x="400" y="612" text-anchor="middle" font-family="system-ui, sans-serif" font-size="38" font-weight="600" fill="#6b7280">Car Accessories</text>
  
</svg>
