<svg width="180" height="180" viewBox="0 0 180 180" fill="none" xmlns="http://www.w3.org/2000/svg" role="img" aria-label="MemoryDeals">
  <defs>
    <linearGradient id="mdApple" x1="0" y1="0" x2="180" y2="180" gradientUnits="userSpaceOnUse">
      <stop stop-color="#2F6BFF"/>
      <stop offset="1" stop-color="#1E4FD1"/>
    </linearGradient>
  </defs>
  <!-- Apple applies its own rounding/masking; fill full square. -->
  <rect width="180" height="180" fill="url(#mdApple)"/>
  <g transform="translate(6 6) scale(0.328)">
    <g fill="#FFFFFF">
      <path d="M108 356V172c0-6 5-11 11-11h20c4 0 8 2 10 6l45 82c2 4 8 4 10 0l45-82c2-4 6-6 10-6h20c6 0 11 5 11 11v184c0 6-5 11-11 11h-16c-6 0-11-5-11-11V245l-33 60c-2 4-6 6-10 6h-14c-4 0-8-2-10-6l-33-60v111c0 6-5 11-11 11h-16c-6 0-11-5-11-11z"/>
      <path d="M330 356V172c0-6 5-11 11-11h44c58 0 96 39 96 98s-38 97-96 97h-44c-6 0-11-5-11-11zm38-22h17c34 0 56-24 56-64s-22-64-56-64h-17v128z"/>
    </g>
    <g fill="#BFE0FF">
      <rect x="240" y="404" width="14" height="26" rx="4"/>
      <rect x="258" y="404" width="14" height="26" rx="4"/>
      <rect x="228" y="428" width="56" height="20" rx="8"/>
    </g>
  </g>
</svg>
