<svg width="64" height="64" viewBox="0 0 64 64" fill="none" xmlns="http://www.w3.org/2000/svg" role="img" aria-label="MemoryDeals">
  <rect width="64" height="64" rx="14" fill="#2563EB"/>
  <g fill="#FFFFFF">
    <!-- M -->
    <path d="M12 45V20c0-1.4 1.1-2.5 2.5-2.5h2.4c.9 0 1.7.5 2.1 1.3l6.9 12.6c.5.9 1.8.9 2.3 0l6.9-12.6c.4-.8 1.2-1.3 2.1-1.3h2.4c1.4 0 2.5 1.1 2.5 2.5v25c0 1.4-1.1 2.5-2.5 2.5h-1.7c-1.4 0-2.5-1.1-2.5-2.5V32.5l-4.5 8.1c-.4.8-1.2 1.3-2.1 1.3h-1.4c-.9 0-1.7-.5-2.1-1.3l-4.5-8.1V45c0 1.4-1.1 2.5-2.5 2.5h-1.7C13.1 47.5 12 46.4 12 45z"/>
  </g>
</svg>
